<svg xmlns="http://www.w3.org/2000/svg" viewBox="0 0 1950 372" role="img" aria-label="Côté Buro"><path d="M0 0 C3.0 -0.1 6.1 -0.2 9.1 -0.2 C10.4 -0.3 11.7 -0.3 12.9 -0.3 C23.6 -0.7 23.6 -0.7 26.8 1.4 C28.0 2.9 28.9 4.5 29.9 6.2 C31.1 7.2 32.2 8.3 33.5 9.3 C37.1 12.4 40.5 15.7 43.9 19.2 C47.8 23.1 51.8 27.0 56.1 30.6 C59.8 33.8 63.1 37.3 66.3 41.1 C70.6 45.9 74.9 50.0 80.0 53.9 C83.6 56.8 86.6 60.0 89.5 63.5 C90.8 65.1 92.1 66.1 93.9 67.2 C93.6 68.5 93.2 69.8 92.9 71.2 C79.9 71.7 67.0 72.3 54.0 72.4 C53.6 72.4 53.6 72.4 51.4 72.5 C46.7 72.5 43.7 72.2 39.9 69.2 C38.1 67.4 38.1 67.4 36.5 65.4 C36.2 65.1 36.2 65.1 34.7 63.3 C33.6 62.0 32.5 60.7 31.4 59.3 C28.7 56.1 26.0 53.3 22.8 50.6 C19.4 47.7 17.1 45.0 14.9 41.2 C14.9 40.5 14.9 39.8 14.9 39.2 C14.3 38.9 13.6 38.5 13.0 38.2 C10.9 37.2 10.9 37.2 9.9 36.2 C7.2 35.7 4.6 35.7 1.9 36.2 C-0.2 37.8 -1.4 39.1 -3.1 41.2 C-4.6 42.8 -6.0 44.4 -7.5 46.0 C-10.3 49.1 -13.1 52.3 -15.8 55.5 C-17.7 57.6 -19.6 59.7 -21.7 61.7 C-24.2 64.3 -26.4 66.9 -28.7 69.7 C-30.6 71.7 -32.4 72.1 -35.1 72.3 C-35.5 72.3 -35.5 72.3 -37.5 72.3 C-38.4 72.3 -39.3 72.3 -40.2 72.3 C-41.2 72.3 -42.1 72.3 -43.1 72.3 C-44.1 72.3 -45.1 72.3 -46.1 72.3 C-48.2 72.3 -50.2 72.3 -52.3 72.3 C-55.5 72.4 -58.7 72.4 -61.9 72.4 C-63.9 72.4 -65.9 72.4 -68.0 72.4 C-68.4 72.4 -68.4 72.4 -70.9 72.4 C-71.8 72.4 -72.6 72.4 -73.6 72.4 C-74.0 72.4 -74.0 72.4 -75.9 72.4 C-78.4 72.1 -80.0 71.4 -82.1 70.2 C-81.7 65.8 -78.8 63.8 -75.7 61.1 C-74.6 60.1 -73.5 59.2 -72.4 58.2 C-71.9 57.7 -71.3 57.2 -70.7 56.7 C-68.2 54.3 -65.8 51.9 -63.3 49.4 C-57.6 43.6 -51.5 38.3 -45.0 33.2 C-41.2 30.2 -38.1 27.1 -35.0 23.4 C-29.2 16.6 -22.8 10.5 -15.8 5.0 C-15.4 4.7 -14.9 4.3 -14.4 3.9 C-9.8 0.4 -5.5 0.3 0 0 Z " fill="#23262A" transform="translate(415.1,-0.2)"/><path d="M0 0 C3.1 0.4 3.1 0.4 5.1 -0.6 C10.5 -1.5 13.0 -0.2 17.5 2.9 C19.0 4.1 20.6 5.3 22.1 6.4 C21.6 10.7 18.9 13.1 16.1 16.1 C15.6 16.6 15.1 17.2 14.6 17.7 C7.5 25.2 0.2 32.4 -7.1 39.6 C-9.4 41.9 -11.7 44.1 -13.9 46.4 C-15.2 47.7 -16.5 49.0 -17.8 50.2 C-18.4 50.9 -19.1 51.6 -19.8 52.3 C-26.1 58.6 -26.1 58.6 -28.1 60.6 C-29.2 61.7 -30.4 62.9 -31.5 64.0 C-36.3 68.8 -39.6 71.5 -46.7 71.6 C-47.3 71.6 -47.9 71.6 -48.6 71.6 C-48.9 71.6 -48.9 71.6 -50.5 71.6 C-51.9 71.6 -53.3 71.6 -54.7 71.6 C-56.8 71.6 -58.8 71.6 -60.9 71.6 C-83.6 71.6 -83.6 71.6 -87.9 69.4 C-87.3 65.9 -86.1 64.1 -83.7 61.5 C-83.1 60.8 -82.4 60.1 -81.8 59.4 C-81.5 59.1 -81.5 59.1 -79.9 57.4 C-79.5 56.9 -79.0 56.4 -78.5 55.8 C-76.3 53.6 -75.0 52.5 -71.9 51.4 C-71.9 50.8 -71.9 50.1 -71.9 49.4 C-70.4 47.9 -70.4 47.9 -68.3 46.1 C-67.6 45.5 -66.8 44.9 -66.1 44.2 C-64.8 43.2 -63.6 42.1 -62.3 41.1 C-59.6 38.9 -57.3 36.7 -55.1 34.1 C-51.4 29.7 -47.1 24.9 -41.8 22.5 C-39.4 21.2 -39.1 19.9 -37.9 17.4 C-32.3 11.6 -25.9 6.7 -18.9 2.4 C-18.4 2.1 -17.9 1.8 -17.4 1.4 C-12.0 -1.8 -5.9 -0.9 0 0 Z " fill="#23262A" transform="translate(847.9,0.6)"/><path d="M0 0 C1.8 0.6 3.7 1.1 5.5 1.6 C11.5 3.4 16.7 5.7 22 9 C22.9 9.5 23.7 10.0 24.6 10.6 C42.5 21.8 60.0 36.7 71 55 C71.5 55.7 71.9 56.3 72.4 57.0 C75.4 61.4 77.5 65.6 77 71 C71.3 76.7 57.2 75.3 49.5 75.3 C49.1 75.3 49.1 75.3 47.3 75.3 C45.1 75.3 42.9 75.3 40.7 75.4 C39.3 75.4 37.9 75.4 36.4 75.4 C35.8 75.4 35.2 75.4 34.5 75.4 C28.5 75.3 23.1 73.6 18.8 69.3 C18.2 68.8 17.7 68.3 17.2 67.8 C16.6 67.3 16.1 66.7 15.6 66.2 C14.4 65.1 13.3 64.0 12.1 62.9 C11.6 62.4 11.1 61.9 10.5 61.4 C7.5 58.6 4.3 56.3 1 54 C0.7 53.8 0.7 53.8 -0.8 52.7 C-2.9 51.4 -4.9 50.2 -7 49 C-7.4 48.7 -7.4 48.7 -9.5 47.5 C-22.1 40.4 -37.8 38.8 -52 40 C-52.7 40.1 -53.4 40.1 -54.2 40.2 C-68.5 41.5 -80.9 45.7 -92 55 C-92.9 55.6 -93.9 56.2 -94.8 56.8 C-98.5 59.1 -101.3 62.2 -104.3 65.4 C-106 67 -106 67 -108 67 C-108.3 67.7 -108.5 68.5 -108.8 69.2 C-109.9 71.9 -111.2 74.1 -112.8 76.4 C-113.3 77.2 -113.9 78.0 -114.4 78.8 C-115.7 80.6 -117.1 82.2 -118.6 83.9 C-121.6 87.2 -122.7 91.2 -124.1 95.4 C-125 98 -125 98 -126.0 99.9 C-134.5 117.7 -131.7 140.6 -125.8 158.8 C-117.6 181.5 -117.6 181.5 -110.1 187.9 C-109.7 188.3 -109.4 188.6 -109 189 C-109 189.7 -109 190.3 -109 191 C-108.7 191.1 -108.7 191.1 -107.3 191.7 C-104.5 193.3 -102.5 195.4 -100.2 197.8 C-94.5 203.6 -89.0 208.7 -81.0 211.3 C-78.9 212.0 -77.0 212.9 -75.1 213.9 C-58.6 221.2 -41.4 224.3 -24 218 C-23.0 217.7 -22.1 217.4 -21.1 217.1 C-15.8 215.3 -11.5 213.3 -7 210 C-6.1 209.6 -5.1 209.1 -4.2 208.7 C3.6 204.9 10.1 198.3 16.7 192.6 C17.2 192.2 17.7 191.7 18.3 191.3 C18.8 190.8 19.2 190.4 19.7 190.0 C26.6 184.6 41.5 186.8 49.9 186.8 C52.3 186.8 54.8 186.8 57.2 186.8 C58.8 186.8 60.4 186.8 61.9 186.8 C62.6 186.8 63.4 186.8 64.1 186.7 C68.5 186.8 71.9 187.4 76 189 C76.4 197.7 71.9 203.4 67 210 C66.5 210.7 65.9 211.5 65.4 212.2 C63.9 214.2 62.5 216.1 61 218 C60.4 218.8 59.8 219.5 59.2 220.3 C51.1 231.0 41.3 238.7 30 246 C28.4 247.1 26.9 248.1 25.3 249.2 C22.0 251.4 18.7 253.3 15 255 C14.1 255.5 13.1 256.0 12.2 256.5 C9.3 257.9 6.4 258.9 3.2 259.9 C3.0 260.0 3.0 260.0 1.6 260.4 C-1.8 261.4 -5.2 262.3 -8.7 263.3 C-9.1 263.4 -9.1 263.4 -11.1 263.9 C-12.7 264.3 -14.2 264.8 -15.8 265.2 C-16.5 265.4 -17.3 265.6 -18.0 265.8 C-18.7 265.9 -19.3 266.1 -20.0 266.3 C-22 267 -22 267 -24.4 268.5 C-27.6 270.3 -29.7 270.4 -33.3 270.5 C-33.9 270.5 -34.5 270.5 -35.2 270.5 C-37.1 270.5 -39.0 270.5 -40.9 270.5 C-41.3 270.5 -41.3 270.5 -42.9 270.5 C-51.5 270.5 -58.9 269.9 -66.8 266.4 C-71.5 264.4 -76.3 263.4 -81.3 262.3 C-82.0 262.2 -82.7 262.0 -83.4 261.9 C-84.0 261.8 -84.6 261.6 -85.2 261.5 C-87 261 -87 261 -89.0 260.0 C-91.1 259.0 -92.8 258.6 -95.2 258.2 C-100.6 257.1 -104.8 254.5 -109.4 251.4 C-109.8 251.1 -109.8 251.1 -111.9 249.7 C-118.1 245.7 -124.1 241.5 -130 237 C-130.7 236.5 -131.4 236.0 -132.2 235.5 C-144.1 226.8 -152.4 215.5 -160 203 C-160.5 202.1 -161.1 201.3 -161.6 200.4 C-166.4 192.5 -170.3 184.8 -173.1 176.1 C-173.2 175.7 -173.2 175.7 -173.8 173.8 C-174.0 173.1 -174.3 172.3 -174.5 171.5 C-174.8 170.8 -175.0 170.1 -175.3 169.3 C-175.8 167.7 -176.3 166.1 -176.7 164.5 C-177.0 163.7 -177.2 162.9 -177.5 162.1 C-177.7 161.3 -177.9 160.6 -178.2 159.8 C-179 158 -179 158 -180.5 157.2 C-182 156 -182 156 -182.4 153.8 C-182.4 152.9 -182.4 151.9 -182.4 151.0 C-182.4 149.9 -182.4 148.9 -182.4 147.8 C-182.4 146.7 -182.4 145.6 -182.4 144.4 C-182.4 143.2 -182.4 142.0 -182.4 140.9 C-182.5 138.4 -182.5 135.9 -182.4 133.5 C-182.4 130.3 -182.5 127.2 -182.5 124.0 C-182.5 121.6 -182.5 119.2 -182.5 116.8 C-182.5 115.0 -182.5 113.3 -182.5 111.6 C-182.5 102.9 -182.5 102.9 -180.0 100.0 C-179.4 99.3 -178.7 98.7 -178 98 C-177.2 96.3 -177.2 96.3 -176.8 94.7 C-176.7 94.1 -176.5 93.5 -176.4 92.9 C-176.2 92.3 -176.1 91.7 -175.9 91.1 C-173.9 83.5 -173.9 83.5 -172.4 80.2 C-171.3 77.6 -170.4 75.2 -169.6 72.6 C-168.1 67.9 -165.8 64.1 -163 60 C-162.5 59.3 -162.1 58.6 -161.6 57.9 C-155.3 48.1 -147.8 39.5 -140 31 C-139.6 30.5 -139.1 30.0 -138.7 29.5 C-131.2 21.4 -120.5 15.5 -111 10 C-110.3 9.6 -109.6 9.2 -108.9 8.8 C-77.0 -9.5 -34.5 -13.1 0 0 Z " fill="#23262A" transform="translate(182,102)"/><path d="M0 0 C2.0 0.8 4.0 1.7 6 2.5 C6.5 2.7 6.5 2.7 9.0 3.8 C11.9 4.9 14.7 5.9 17.6 6.9 C23.5 9.0 28.1 12.2 33 16 C33.3 16.3 33.3 16.3 35.1 17.5 C37.1 19.0 39.0 20.5 41 22 C41.4 22.3 41.4 22.3 43.1 23.6 C53.2 31.3 63.8 39.6 69.8 50.9 C71.1 53.2 72.5 55.4 73.8 57.6 C84.4 74.5 91.3 90.0 93.7 109.9 C94 112 94 112 94.5 114.4 C99.9 143.8 91.9 179.1 75.2 203.7 C73.5 206.0 71.8 208.3 70.1 210.5 C69.0 212.1 67.8 213.6 66.7 215.2 C56.7 228.7 44.4 242.1 28.9 249.1 C26.8 250.1 25.0 251.3 23.1 252.5 C18.6 255.3 14.0 257.2 9 259 C8.0 259.4 6.9 259.8 5.9 260.3 C-3.5 264.0 -13.0 265.6 -23 267 C-23.3 268.3 -23.7 269.6 -24 271 C-36.9 271 -49.7 271 -63 271 C-63.2 270.5 -63.2 270.5 -64 268 C-64.3 267.9 -64.3 267.9 -65.5 267.7 C-67.9 267.2 -70.2 266.7 -72.5 266.2 C-73.3 266.1 -74.1 265.9 -74.9 265.8 C-79.8 264.7 -83.8 263.2 -88.2 260.9 C-90.5 259.8 -92.7 259.2 -95.1 258.8 C-101.9 257.0 -107.5 253.6 -113.4 250.0 C-114.8 249.1 -116.3 248.3 -117.7 247.5 C-129.3 240.9 -138.5 231.7 -147.6 222.1 C-148.1 221.5 -148.7 220.9 -149.3 220.3 C-153.5 215.7 -156.9 211.1 -159.9 205.7 C-161.5 202.9 -163.2 200.2 -165 197.5 C-165.5 196.7 -166.0 196.0 -166.6 195.2 C-167.4 193.9 -168.3 192.6 -169.1 191.4 C-172.8 185.8 -174.0 179.2 -175.5 172.8 C-176 171 -176 171 -177.0 168.6 C-187.7 140.9 -182.8 101.8 -171 75 C-169.2 71.2 -167.2 67.6 -165 64 C-164.6 63.3 -164.2 62.7 -163.8 62.0 C-157.8 51.8 -150.1 42.6 -142 34 C-141.5 33.5 -141.1 33.0 -140.6 32.5 C-137.1 28.8 -133.1 26.0 -129 23 C-128.6 22.7 -128.6 22.7 -126.5 21.1 C-119.9 16.2 -113.2 11.9 -106 8 C-105.5 7.7 -105.5 7.7 -103.0 6.3 C-97.0 3.2 -91.3 1.1 -84.7 -0.3 C-82.4 -0.9 -80.5 -1.6 -78.3 -2.6 C-74.3 -4.5 -70.4 -4.7 -66 -5 C-65.1 -5.1 -64.2 -5.2 -63.3 -5.3 C-43.0 -7.2 -19.0 -8.5 0 0 Z M-103 64 C-104.9 66.0 -106.7 68.1 -108.5 70.2 C-110 72 -110 72 -112.2 74.1 C-114.5 76.5 -116.2 79.2 -118 82 C-118.6 82.8 -119.1 83.7 -119.7 84.5 C-124.3 91.8 -126.7 98.8 -128.6 107.3 C-129 109 -129 109 -130.1 112.1 C-131.6 117.3 -131.3 122.9 -131.3 128.4 C-131.3 130.3 -131.3 132.2 -131.4 134.2 C-131.4 141.6 -130.6 148.0 -128 155 C-127.6 156.3 -127.2 157.6 -126.8 158.9 C-124.3 166.8 -121.4 173.9 -117 181 C-116.5 181.8 -116.1 182.6 -115.6 183.4 C-112.6 188.2 -109.3 191.8 -105.0 195.3 C-103.1 196.9 -101.4 198.7 -99.6 200.5 C-85.3 215.0 -64.9 222.4 -44.8 222.7 C-20.5 222.4 1.0 213.0 18.1 196.1 C20.5 193.6 22.7 191.0 24.9 188.3 C26 187 26 187 28.6 184.7 C30.7 182.6 31.7 180.6 32.9 177.9 C33.2 177.1 33.6 176.3 33.9 175.5 C34.3 174.7 34.6 173.9 35 173 C35.3 172.2 35.7 171.4 36.1 170.6 C37.1 168.1 38.1 165.7 39.2 163.2 C39.5 162.4 39.9 161.6 40.3 160.8 C47.7 143.3 47.3 118.1 41 100.2 C40.1 98.1 39.1 96.1 38 94 C37.7 93.3 37.3 92.7 37.0 92.0 C31.7 82.3 25.9 72.8 18 65 C17.3 65 16.7 65 16 65 C15.8 64.4 15.6 63.8 15.3 63.2 C13.6 60.3 11.7 59.3 8.9 57.6 C7.9 57.0 6.9 56.3 5.9 55.7 C4.9 55.2 4.0 54.6 3 54 C1.6 53.1 0.2 52.2 -1.1 51.3 C-4.6 49.1 -8.2 47.5 -11.9 45.9 C-14 45 -14 45 -15.8 44.0 C-44.1 31.7 -81.5 45.0 -103 64 Z " fill="#23262A" transform="translate(461,101)"/><path d="M0 0 C0.3 0.0 0.3 0.0 1.8 0.0 C6.7 0.0 6.7 0.0 8.8 0.0 C18.5 0.0 28.2 -0.0 37.9 -0.0 C48.0 -0.0 58.1 -0.0 68.3 -0.0 C73.9 -0.0 79.5 -0.0 85.1 -0.1 C90.3 -0.1 95.5 -0.1 100.7 -0.1 C102.6 -0.1 104.5 -0.1 106.4 -0.1 C109.0 -0.1 111.6 -0.1 114.2 -0.1 C114.9 -0.1 115.7 -0.1 116.5 -0.1 C120.9 -0.0 125.1 0.2 128.5 3.4 C129.6 6.2 129.5 9.0 129.5 11.9 C129.5 12.6 129.5 13.3 129.5 14.0 C129.5 15.4 129.5 16.8 129.4 18.2 C129.4 20.3 129.4 22.4 129.4 24.5 C129.4 43.8 129.4 43.8 126.9 46.8 C124.9 48.4 124.1 48.6 121.5 48.6 C120.8 48.6 120.0 48.6 119.2 48.6 C118.4 48.6 117.6 48.6 116.8 48.6 C115.9 48.6 115.0 48.6 114.1 48.6 C111.3 48.7 108.4 48.7 105.5 48.7 C103.6 48.7 101.6 48.7 99.6 48.7 C94.4 48.8 89.1 48.8 83.9 48.8 C75.5 48.8 67.1 48.9 58.8 49.0 C55.8 49.0 52.9 49.0 50.0 49.0 C48.2 49.0 46.4 49.0 44.6 49.0 C43.8 49.0 42.9 49.0 42.1 49.0 C41.3 49.0 40.6 49.0 39.8 49.0 C39.2 49.1 38.5 49.1 37.9 49.1 C36.2 49.2 36.2 49.2 34.2 50.2 C33.2 53.3 33.1 55.4 33.1 58.7 C33.2 59.8 33.2 61.0 33.2 62.1 C33.2 63.3 33.2 64.6 33.2 65.8 C33.2 66.4 33.2 67.0 33.2 67.7 C33.3 71.0 33.3 74.3 33.4 77.5 C33.4 80.9 33.4 84.3 33.5 87.7 C33.5 90.3 33.5 92.9 33.6 95.5 C33.6 96.8 33.6 98.0 33.6 99.3 C33.6 101.0 33.6 102.8 33.7 104.5 C33.7 105.5 33.7 106.5 33.7 107.6 C34.4 110.9 35.5 112.1 38.2 114.2 C40.4 114.7 40.4 114.7 42.7 114.6 C43.5 114.6 44.4 114.6 45.3 114.6 C46.2 114.6 47.2 114.5 48.1 114.5 C49.1 114.5 50.0 114.5 51.0 114.5 C54.1 114.4 57.2 114.4 60.2 114.3 C63.3 114.3 66.4 114.2 69.4 114.2 C71.4 114.1 73.3 114.1 75.2 114.1 C76.0 114.0 76.9 114.0 77.8 114.0 C78.6 114.0 79.3 114.0 80.1 114.0 C82.6 114.2 84.1 114.9 86.2 116.2 C87.3 118.4 87.4 119.6 87.4 122.0 C87.4 122.4 87.4 122.4 87.4 124.4 C87.4 124.8 87.4 124.8 87.4 127.0 C87.4 127.9 87.4 128.7 87.4 129.6 C87.4 131.5 87.4 133.4 87.4 135.2 C87.4 138.0 87.4 140.9 87.5 143.7 C87.5 145.5 87.5 147.3 87.5 149.1 C87.5 150.0 87.5 150.8 87.5 151.7 C87.5 152.5 87.5 153.3 87.5 154.1 C87.5 154.8 87.5 155.5 87.5 156.2 C87.2 158.6 86.5 160.2 85.2 162.2 C82.4 163.1 80.8 163.3 77.9 163.3 C77.0 163.3 76.2 163.3 75.3 163.3 C74.3 163.3 73.4 163.3 72.4 163.2 C71.5 163.2 70.5 163.2 69.5 163.2 C65.4 163.2 61.2 163.2 57.1 163.2 C54.1 163.1 51.1 163.1 48.0 163.1 C47.1 163.1 46.2 163.1 45.2 163.1 C44.3 163.1 43.5 163.1 42.6 163.1 C41.8 163.1 41.0 163.1 40.2 163.1 C38.2 163.2 38.2 163.2 35.2 164.2 C33.9 166.8 34.1 168.7 34.1 171.6 C34.1 172.7 34.1 173.9 34.1 175.0 C34.1 176.3 34.1 177.5 34.1 178.7 C34.1 180.0 34.1 181.3 34.1 182.5 C34.0 185.2 34.0 187.9 34.0 190.5 C34.0 193.9 34.0 197.3 34.0 200.7 C34.0 203.4 34.0 206.0 34.0 208.6 C34.0 209.9 34.0 211.1 34.0 212.4 C34.0 214.1 34.0 215.9 34.0 217.6 C34.0 218.6 34.0 219.6 34.0 220.7 C34.2 223.3 34.5 224.2 36.2 226.2 C37.8 226.5 37.8 226.5 39.8 226.5 C40.5 226.5 41.3 226.5 42.0 226.5 C42.8 226.5 43.6 226.5 44.5 226.5 C45.3 226.5 46.2 226.5 47.1 226.5 C48.9 226.5 50.8 226.4 52.6 226.4 C55.6 226.4 58.5 226.4 61.4 226.3 C68.7 226.3 76.0 226.2 83.3 226.2 C89.4 226.1 95.6 226.0 101.7 226.0 C104.6 226.0 107.5 226.0 110.4 225.9 C112.2 225.9 114.0 225.9 115.7 225.9 C116.5 225.9 117.3 225.9 118.2 225.8 C121.6 225.8 123.7 225.9 126.7 227.6 C130.2 231.3 129.4 237.0 129.4 241.8 C129.4 242.2 129.4 242.2 129.4 244.0 C129.4 245.5 129.4 247.1 129.4 248.6 C129.4 250.9 129.4 253.2 129.4 255.6 C129.4 257.1 129.4 258.5 129.4 260.0 C129.4 260.7 129.4 261.4 129.4 262.1 C129.3 267.3 128.8 272.0 128.2 277.2 C80.4 277.2 32.5 277.2 -16.8 277.2 C-19.0 269.3 -19.0 269.3 -19.0 266.0 C-19.0 265.2 -19.0 264.4 -19.0 263.6 C-19.0 262.8 -19.0 262.0 -19.0 261.2 C-19.0 260.7 -19.0 260.7 -19.0 258.5 C-19.1 255.5 -19.1 252.6 -19.1 249.6 C-19.1 247.5 -19.1 245.4 -19.1 243.3 C-19.1 238.7 -19.1 234.1 -19.1 229.6 C-19.1 223.0 -19.1 216.4 -19.1 209.8 C-19.2 199.0 -19.2 188.3 -19.2 177.6 C-19.2 177.0 -19.2 176.3 -19.2 175.6 C-19.2 170.4 -19.3 165.2 -19.3 160.0 C-19.3 155.5 -19.3 150.9 -19.3 146.4 C-19.3 145.7 -19.3 145.1 -19.3 144.4 C-19.3 133.8 -19.4 123.1 -19.4 112.4 C-19.4 105.8 -19.4 99.2 -19.4 92.6 C-19.4 87.6 -19.5 82.5 -19.5 77.5 C-19.5 75.4 -19.5 73.4 -19.5 71.3 C-19.5 68.5 -19.5 65.6 -19.5 62.8 C-19.5 62.0 -19.5 61.2 -19.5 60.3 C-19.6 53.2 -19.6 53.2 -21.8 50.2 C-24.4 48.9 -26.3 49.1 -29.2 49.0 C-30.3 49.0 -31.4 49.0 -32.6 49.0 C-33.8 49.0 -35.1 49.0 -36.3 49.0 C-37.6 49.0 -38.8 49.0 -40.1 49.0 C-42.7 49.0 -45.4 49.0 -48.1 49.0 C-51.4 49.0 -54.8 49.0 -58.2 49.0 C-60.9 49.0 -63.5 49.0 -66.1 49.0 C-67.3 49.0 -68.6 49.0 -69.8 48.9 C-71.6 48.9 -73.4 48.9 -75.1 48.9 C-75.6 48.9 -75.6 48.9 -78.1 48.9 C-80.9 49.2 -82.5 49.7 -84.8 51.2 C-85.9 53.4 -85.9 54.4 -85.9 56.8 C-85.9 57.5 -85.9 58.3 -85.9 59.1 C-85.9 59.5 -85.9 59.5 -85.9 61.6 C-85.9 62.5 -85.9 63.3 -85.9 64.2 C-85.9 67.2 -85.9 70.2 -85.8 73.1 C-85.8 75.2 -85.8 77.3 -85.8 79.5 C-85.8 84.0 -85.8 88.6 -85.8 93.2 C-85.8 99.8 -85.8 106.4 -85.8 113.0 C-85.8 123.7 -85.8 134.4 -85.7 145.2 C-85.7 145.8 -85.7 146.5 -85.7 147.1 C-85.7 156.2 -85.7 165.4 -85.7 174.5 C-85.7 175.1 -85.7 175.7 -85.7 176.4 C-85.7 176.7 -85.7 176.7 -85.7 178.3 C-85.6 189.0 -85.6 199.7 -85.6 210.4 C-85.6 217.0 -85.6 223.6 -85.6 230.2 C-85.6 235.2 -85.6 240.3 -85.6 245.3 C-85.6 247.4 -85.6 249.5 -85.5 251.5 C-85.5 254.4 -85.5 257.2 -85.5 260.0 C-85.5 260.4 -85.5 260.4 -85.5 262.5 C-85.5 263.3 -85.5 264.0 -85.5 264.8 C-85.5 265.2 -85.5 265.2 -85.5 266.8 C-85.9 270.3 -86.9 273.8 -87.8 277.2 C-103.6 277.2 -119.4 277.2 -135.8 277.2 C-136.9 268.2 -136.9 268.2 -136.9 264.8 C-136.9 264.1 -136.9 263.3 -136.9 262.5 C-136.9 262.1 -136.9 262.1 -136.9 260.0 C-136.9 259.6 -136.9 259.6 -136.9 257.4 C-136.9 254.4 -136.9 251.5 -136.9 248.5 C-136.9 246.4 -137.0 244.2 -137.0 242.1 C-137.0 237.6 -137.0 233.0 -137.0 228.4 C-137.0 221.8 -137.0 215.2 -137.1 208.6 C-137.1 197.9 -137.1 187.2 -137.2 176.5 C-137.2 175.8 -137.2 175.2 -137.2 174.5 C-137.2 165.4 -137.2 156.3 -137.2 147.2 C-137.2 146.6 -137.2 145.9 -137.2 145.3 C-137.2 144.6 -137.2 144.0 -137.2 143.3 C-137.3 132.6 -137.3 121.9 -137.4 111.3 C-137.4 104.7 -137.4 98.1 -137.4 91.5 C-137.4 86.4 -137.4 81.4 -137.5 76.4 C-137.5 74.3 -137.5 72.2 -137.5 70.1 C-137.5 67.3 -137.5 64.5 -137.5 61.7 C-137.5 60.9 -137.5 60.0 -137.5 59.2 C-137.5 58.4 -137.5 57.7 -137.5 56.9 C-137.5 56.3 -137.5 55.6 -137.5 54.9 C-137.8 52.8 -138.4 51.8 -139.8 50.2 C-143.1 49.1 -146.2 49.0 -149.7 48.9 C-150.4 48.9 -151.0 48.9 -151.7 48.8 C-153.9 48.8 -156.1 48.7 -158.3 48.7 C-184.9 48.0 -184.9 48.0 -187.8 45.2 C-188.0 43.0 -188.2 41.0 -188.2 38.8 C-188.2 38.2 -188.3 37.6 -188.3 36.9 C-188.3 35.6 -188.4 34.2 -188.4 32.9 C-188.5 30.9 -188.5 28.8 -188.6 26.8 C-189.2 9.3 -189.2 9.3 -187.8 3.2 C-185.8 1.2 -184.4 1.2 -181.6 0.9 C-180.3 0.9 -178.9 0.9 -177.6 0.9 C-176.8 0.9 -176.1 0.9 -175.3 0.8 C-172.8 0.8 -170.3 0.8 -167.9 0.8 C-166.1 0.8 -164.3 0.7 -162.5 0.7 C-157.5 0.7 -152.6 0.6 -147.7 0.6 C-144.6 0.6 -141.4 0.5 -138.3 0.5 C-92.2 0.1 -46.1 -0.0 0 0 Z " fill="#23262A" transform="translate(746.8,94.8)"/><path d="M0 0 C0.7 -0.0 1.4 -0.0 2.1 -0.0 C4.4 -0.0 6.7 -0.0 9.0 -0.0 C10.6 -0.0 12.2 -0.0 13.8 -0.0 C17.2 -0.0 20.6 -0.0 24.0 -0.0 C28.3 0.0 32.5 0.0 36.8 -0.0 C116.2 -0.1 116.2 -0.1 140.6 23.0 C142.5 24.9 144.6 26.6 146.7 28.3 C149.7 30.9 151.9 33.7 153.8 37.1 C154.3 38.0 154.8 38.8 155.3 39.7 C158.3 45.0 160.8 50.3 162.8 56.1 C163.5 58.0 164.2 59.9 164.9 61.8 C171.3 78.8 168.4 99.3 162.8 116.1 C162.6 116.9 162.3 117.7 162.1 118.6 C160.7 122.8 159.1 126.3 156.8 130.1 C155.4 133.1 153.9 136.2 152.5 139.2 C150.7 142.4 148.5 144.7 145.8 147.1 C145.0 147.9 144.1 148.7 143.3 149.6 C137.5 155.0 131.5 159.8 124.8 164.1 C124.2 164.5 123.6 164.9 123.0 165.3 C118.9 167.9 114.7 169.1 110.1 170.4 C107.3 171.3 105.2 172.4 102.8 174.1 C102.8 175.2 102.8 176.3 102.8 177.4 C102.7 178.1 102.7 178.7 102.7 179.3 C102.8 181.1 102.8 181.1 103.8 184.1 C104.5 184.1 105.1 184.1 105.8 184.1 C107.0 185.6 107.0 185.6 108.3 187.8 C111.0 191.9 113.8 196.0 116.8 200.1 C119.7 204.1 122.6 208.2 125.4 212.4 C128.5 216.7 131.7 220.8 135.0 224.9 C136.8 227.1 138.3 229.3 139.8 231.6 C141.0 233.5 142.4 235.2 143.8 236.9 C148.9 243.5 153.7 250.3 158.4 257.1 C159.3 258.4 160.2 259.6 161.0 260.9 C162.1 262.3 163.1 263.8 164.1 265.3 C164.3 265.6 164.3 265.6 165.7 267.6 C166.8 270.1 166.8 270.1 166.8 277.1 C147.3 277.1 127.9 277.1 107.8 277.1 C106.8 275.1 105.8 273.2 104.8 271.1 C100.5 263.2 95.3 256.0 90.0 248.7 C88.4 246.6 86.9 244.5 85.4 242.3 C82.2 237.6 78.9 233.0 75.6 228.3 C75.1 227.6 74.6 226.9 74.1 226.1 C72.0 223.2 69.9 220.3 67.7 217.5 C65.7 215.0 64.0 212.4 62.4 209.8 C60.0 206.0 57.6 202.3 55.0 198.8 C53.8 197.1 53.8 197.1 52.4 194.8 C50.7 191.9 48.7 189.4 46.7 186.8 C43.2 182.2 40.1 177.4 37.2 172.4 C34.4 167.6 31.4 163.1 27.9 158.8 C24.8 154.9 21.8 150.9 18.8 146.9 C18.2 146.2 17.6 145.4 17.0 144.6 C12.9 139.1 12.9 139.1 12.7 136.2 C12.9 134.6 12.9 134.6 13.8 132.1 C19.8 129.5 25.7 129.9 32.2 130.1 C33.4 130.1 34.6 130.1 35.8 130.1 C40.9 130.2 46.0 130.2 51.2 130.3 C83.1 130.9 83.1 130.9 95.8 122.1 C96.8 121.6 97.8 121.2 98.9 120.7 C102.1 119.0 104.1 117.1 106.5 114.4 C107.2 113.6 108.0 112.7 108.8 111.9 C114.1 104.7 114.3 98.5 114.2 89.6 C114.2 89.1 114.2 89.1 114.2 86.3 C114.2 79.0 113.8 73.6 108.9 67.9 C108.2 67.3 107.6 66.6 106.9 66.0 C104.7 64.0 102.8 62.1 101.1 59.7 C95.6 53.4 87.1 50.3 78.9 49.5 C73.2 49.2 67.6 49.2 62.0 49.3 C59.9 49.3 57.8 49.3 55.7 49.3 C50.3 49.3 44.9 49.3 39.5 49.3 C30.8 49.3 22.1 49.3 13.4 49.3 C10.4 49.3 7.4 49.3 4.3 49.3 C2.5 49.3 0.6 49.3 -1.2 49.3 C-1.6 49.3 -1.6 49.3 -3.8 49.4 C-13.0 49.4 -13.0 49.4 -16.2 46.1 C-16.3 44.9 -16.4 43.6 -16.5 42.3 C-16.5 41.5 -16.5 40.7 -16.6 39.9 C-16.6 39.4 -16.6 39.4 -16.6 37.2 C-16.7 36.3 -16.7 35.4 -16.7 34.5 C-16.8 32.6 -16.9 30.7 -16.9 28.8 C-17.0 26.8 -17.0 24.8 -17.1 22.9 C-17.2 20.1 -17.3 17.3 -17.4 14.5 C-17.4 13.6 -17.5 12.7 -17.5 11.8 C-17.6 5.8 -17.6 5.8 -15.5 2.6 C-10.9 -0.3 -5.4 -0.0 0 0 Z " fill="#E55F12" transform="translate(1482.2,94.9)"/><path d="M0 0 C2.6 0.1 5.3 0.1 7.9 0.2 C9.6 0.2 11.3 0.3 13.0 0.3 C13.4 0.3 13.4 0.3 15.4 0.4 C23.4 0.6 30.8 2.5 38.4 5.1 C38.7 5.2 38.7 5.2 40.3 5.7 C55.8 11.1 70.8 18.1 83.1 29.1 C85.1 30.7 87.0 32.3 89.0 33.9 C97.6 40.7 104.5 48.4 110.3 57.8 C111.6 59.9 112.9 62.1 114.3 64.2 C119.0 71.2 122.9 78.0 126.1 85.8 C126.4 86.6 126.8 87.4 127.1 88.2 C128.5 92.0 129.3 95.9 130.1 99.9 C131.1 102.8 131.1 102.8 133.1 104.6 C135.7 107.4 135.6 109.0 135.6 112.8 C135.6 113.4 135.6 114.0 135.6 114.6 C135.7 116.6 135.7 118.6 135.6 120.5 C135.6 121.9 135.7 123.3 135.7 124.7 C135.7 127.5 135.7 130.4 135.7 133.3 C135.6 137.0 135.7 140.6 135.7 144.3 C135.7 147.1 135.7 150.0 135.7 152.8 C135.7 154.2 135.7 155.5 135.7 156.9 C135.8 167.5 135.8 167.5 134.0 170.6 C132.6 172.0 132.6 172.0 130.1 173.8 C129.1 176.4 129.1 176.4 128.6 179.3 C127.6 183.8 126.4 188.1 124.7 192.5 C124.3 193.5 123.9 194.5 123.6 195.6 C121.8 199.6 119.5 203.1 117.1 206.8 C116.6 207.5 116.1 208.3 115.6 209.0 C103.5 227.5 89.2 244.2 69.3 254.5 C66.7 255.9 64.4 257.6 62.0 259.3 C55.9 263.2 49.6 265.2 42.7 267.3 C40.6 267.9 38.5 268.6 36.5 269.4 C31.8 271.0 26.9 271.9 22.1 272.9 C19.1 273.8 19.1 273.8 16.9 275.3 C13.2 277.2 10.4 277.2 6.3 277.2 C5.6 277.2 4.9 277.2 4.1 277.2 C2.5 277.2 1.0 277.2 -0.6 277.1 C-2.9 277.1 -5.3 277.1 -7.6 277.2 C-9.2 277.2 -10.7 277.2 -12.2 277.2 C-12.9 277.2 -13.6 277.2 -14.3 277.2 C-18.7 277.1 -21.2 276.3 -24.9 273.8 C-27.0 273.1 -27.0 273.1 -29.0 272.7 C-29.8 272.6 -30.5 272.4 -31.3 272.3 C-31.7 272.2 -31.7 272.2 -33.7 271.8 C-39.5 270.6 -44.8 269.3 -50.1 266.7 C-51.9 265.8 -53.6 265.1 -55.5 264.5 C-61.7 262.3 -67.4 258.9 -73.1 255.8 C-74.8 254.8 -76.5 253.9 -78.2 253.0 C-78.7 252.8 -78.7 252.8 -81.2 251.4 C-81.6 251.2 -81.6 251.2 -83.8 250.1 C-85.8 248.8 -87.4 247.6 -88.9 245.8 C-88.9 245.1 -88.9 244.4 -88.9 243.8 C-89.6 243.6 -90.3 243.4 -91.0 243.2 C-95.1 241.2 -97.8 238.1 -100.9 234.8 C-101.8 233.9 -102.6 233.1 -103.5 232.3 C-109.1 226.5 -113.6 220.5 -117.9 213.8 C-118.9 212.2 -120.0 210.7 -121.0 209.2 C-121.5 208.4 -122.0 207.7 -122.5 206.9 C-123.4 205.6 -124.3 204.2 -125.2 202.9 C-132.0 192.8 -134.8 181.2 -137.5 169.6 C-137.9 167.8 -138.4 166.1 -139.0 164.4 C-145.0 143.7 -141.2 118.3 -136.5 97.6 C-136.4 96.7 -136.2 95.8 -136.0 94.9 C-134.7 89.7 -133.1 86.1 -129.9 81.8 C-129.1 80.2 -128.3 78.6 -127.5 77.0 C-121.2 64.1 -113.1 50.3 -101.7 41.2 C-99.2 39.2 -97.3 36.8 -95.3 34.3 C-93.4 32.2 -91.2 30.5 -88.9 28.8 C-88.3 28.1 -87.7 27.5 -87.1 26.8 C-80.6 20.6 -71.6 16.9 -63.6 13.1 C-62.6 12.7 -61.6 12.2 -60.5 11.7 C-53.4 8.3 -46.6 5.6 -38.9 3.8 C-38.4 3.6 -38.4 3.6 -35.8 2.9 C-23.8 -0.3 -12.3 -0.3 0 0 Z M-44.9 57.8 C-46.3 58.5 -47.8 59.3 -49.2 60.0 C-59.6 65.8 -68.1 73.5 -74.5 83.6 C-75.8 85.5 -77.1 87.4 -78.5 89.2 C-90.3 105.7 -94.8 129.6 -91.5 149.5 C-89.8 158.0 -88.0 166.3 -83.9 174.0 C-82.9 175.9 -82.1 177.8 -81.4 179.9 C-76.4 191.2 -66.5 201.3 -56.7 208.7 C-56.2 209.1 -55.6 209.6 -55.0 210.0 C-39.3 221.8 -22.2 228.2 -2.5 228.3 C-1.5 228.3 -0.5 228.3 0.5 228.4 C6.8 228.3 11.8 227.1 17.6 224.7 C20.0 223.8 22.2 223.3 24.6 222.8 C29.9 221.8 34.4 219.3 39.1 216.8 C39.7 216.4 40.3 216.1 41.0 215.8 C45.2 213.6 48.5 210.8 52.0 207.6 C53.4 206.4 54.8 205.2 56.2 204.0 C60.4 200.5 63.2 197.3 66.1 192.8 C66.7 192.1 67.4 191.5 68.0 190.9 C76.3 182.3 80.0 170.3 82.4 158.9 C82.9 156.6 83.4 154.5 84.1 152.3 C88.9 135.6 85.2 113.2 77.5 97.7 C76.1 95.3 74.6 93.0 73.1 90.8 C72.1 89.0 71.1 87.2 70.1 85.4 C67.6 81.2 64.7 78.4 60.9 75.3 C59.3 73.9 58.1 72.6 56.8 70.8 C49.5 61.7 36.7 55.0 26.1 50.8 C25.4 50.5 24.7 50.2 24.0 49.9 C16.4 47.2 9.0 47.3 1.0 47.4 C-1.3 47.4 -3.6 47.4 -5.9 47.3 C-20.3 47.3 -32.6 50.1 -44.9 57.8 Z " fill="#E55F12" transform="translate(1814.9,95.2)"/><path d="M0 0 C1.2 0.0 2.4 0.0 3.6 0.0 C6.8 0.0 10.1 0.0 13.3 0.1 C15.3 0.1 17.4 0.1 19.4 0.1 C25.7 0.1 32.1 0.2 38.5 0.2 C45.8 0.3 53.1 0.3 60.4 0.3 C66.1 0.3 71.8 0.4 77.4 0.4 C80.8 0.4 84.2 0.4 87.6 0.4 C90.8 0.4 93.9 0.5 97.1 0.5 C98.8 0.5 100.5 0.5 102.2 0.5 C110.3 0.6 117.0 2.4 124.6 5.1 C124.9 5.2 124.9 5.2 126.7 5.8 C141.0 10.8 151.0 18.2 161.6 29.1 C162.4 29.8 163.3 30.6 164.1 31.4 C167.2 34.5 168.8 38.1 170.6 42.1 C170.9 42.8 171.3 43.6 171.6 44.3 C179.6 62.7 179.1 81.7 172.4 100.4 C171.2 103.0 169.4 105.0 167.6 107.1 C167.0 108.0 166.5 108.9 165.9 109.9 C163.5 113.7 159.9 116.3 156.4 119.1 C154.6 121.1 154.6 121.1 153.9 123.5 C155.0 127.7 158.1 129.2 161.6 131.5 C162.3 132.0 162.9 132.5 163.7 133.0 C165.6 134.4 167.6 135.7 169.6 137.1 C171.1 138.2 172.7 139.3 174.2 140.4 C174.5 140.6 174.5 140.6 175.9 141.6 C186.5 151.0 191.5 165.2 192.6 179.1 C193.7 200.5 192.6 218.3 181.6 237.1 C181.2 237.7 180.9 238.3 180.5 239.0 C174.2 249.7 166.4 255.3 155.6 261.1 C154.2 261.8 152.9 262.6 151.6 263.4 C143.9 267.6 136.8 270.1 128.1 271.3 C125.0 271.8 122.2 272.4 119.2 273.3 C104.3 277.6 89.9 277.8 74.6 277.6 C71.1 277.6 67.5 277.6 64.0 277.6 C57.4 277.5 50.7 277.5 44.1 277.4 C36.5 277.4 28.9 277.4 21.3 277.3 C5.7 277.3 -9.9 277.2 -25.4 277.1 C-26.4 270.7 -26.6 264.5 -26.6 258.1 C-26.6 257.0 -26.6 256.0 -26.6 254.8 C-26.6 251.9 -26.6 248.9 -26.6 245.9 C-26.6 242.7 -26.6 239.4 -26.6 236.2 C-26.6 229.2 -26.6 222.1 -26.6 215.1 C-26.6 210.7 -26.6 206.3 -26.6 201.9 C-26.6 189.7 -26.7 177.5 -26.7 165.4 C-26.7 164.6 -26.7 163.8 -26.7 163.0 C-26.7 162.2 -26.7 161.5 -26.7 160.6 C-26.7 159.1 -26.7 157.5 -26.7 155.9 C-26.7 155.1 -26.7 154.3 -26.7 153.5 C-26.7 140.8 -26.7 128.1 -26.7 115.4 C-26.7 102.3 -26.7 89.2 -26.7 76.2 C-26.7 68.8 -26.8 61.5 -26.8 54.2 C-26.8 47.9 -26.8 41.7 -26.8 35.4 C-26.8 32.2 -26.8 29.1 -26.8 25.9 C-26.8 22.4 -26.8 19.0 -26.8 15.5 C-26.8 14.5 -26.8 13.5 -26.8 12.5 C-26.8 11.6 -26.8 10.6 -26.8 9.7 C-26.8 8.9 -26.8 8.1 -26.8 7.3 C-26.3 4.5 -25.3 3.1 -23.4 1.1 C-21.2 0.5 -21.2 0.5 -18.5 0.3 C-17.5 0.3 -16.5 0.2 -15.5 0.2 C-10.4 0.0 -5.2 -0.0 0 0 Z M25.6 51.1 C24.4 53.4 24.4 54.8 24.4 57.5 C24.4 58.4 24.4 59.3 24.4 60.2 C24.4 61.2 24.4 62.2 24.4 63.2 C24.4 64.2 24.4 65.2 24.4 66.2 C24.3 68.3 24.3 70.5 24.3 72.6 C24.3 75.9 24.3 79.1 24.3 82.4 C24.3 84.5 24.3 86.5 24.2 88.6 C24.2 89.6 24.2 90.6 24.2 91.6 C24.2 97.9 25.0 101.5 29.6 106.1 C32.7 107.2 35.7 107.2 39.1 107.3 C39.6 107.3 39.6 107.3 42.4 107.3 C43.6 107.3 44.8 107.3 46.0 107.4 C46.6 107.4 47.2 107.4 47.8 107.4 C51.1 107.4 54.4 107.4 57.6 107.4 C60.3 107.4 62.9 107.5 65.6 107.5 C105.9 108.1 105.9 108.1 117.1 97.7 C117.6 97.2 118.1 96.6 118.6 96.1 C119.2 95.6 119.8 95.1 120.4 94.6 C125.1 89.9 125.1 84.8 125.2 78.5 C125.2 78.1 125.2 78.1 125.2 76.1 C125.1 70.4 123.8 66.7 120.6 62.1 C120.2 61.5 119.9 61.0 119.5 60.5 C115.5 54.4 107.3 51.3 100.6 49.1 C98.3 49.0 96.1 48.9 93.8 48.9 C93.4 48.9 93.4 48.9 91.7 48.9 C89.4 48.9 87.2 48.9 84.9 48.9 C83.3 48.9 81.7 48.9 80.2 48.9 C76.8 48.9 73.5 48.9 70.2 48.9 C66.0 48.9 61.8 48.9 57.5 48.9 C54.3 48.9 51.0 48.9 47.7 48.9 C46.2 48.9 44.6 48.9 43.1 48.8 C40.9 48.8 38.7 48.8 36.5 48.8 C36.2 48.8 36.2 48.8 34.5 48.8 C31.1 48.8 28.5 49.1 25.6 51.1 Z M25.7 158.9 C24.3 161.6 24.2 163.6 24.2 166.7 C24.2 167.8 24.2 168.9 24.2 170.1 C24.2 171.3 24.2 172.5 24.2 173.7 C24.2 175.0 24.2 176.2 24.2 177.5 C24.2 180.1 24.2 182.8 24.2 185.4 C24.2 188.8 24.2 192.1 24.2 195.5 C24.2 198.1 24.2 200.7 24.2 203.3 C24.2 204.5 24.2 205.8 24.2 207.0 C24.1 219.3 24.1 219.3 27.6 224.1 C31.0 226.9 34.9 226.8 39.2 227.2 C39.6 227.3 39.6 227.3 41.8 227.5 C52.2 228.4 62.5 228.3 72.9 228.0 C76.3 228.0 79.6 227.9 82.9 227.9 C114.5 227.4 114.5 227.4 126.6 218.1 C127.5 217.6 128.3 217.1 129.3 216.6 C135.2 212.7 140.4 206.9 142.6 200.1 C142.9 197.5 142.9 194.9 142.8 192.2 C142.8 191.5 142.8 190.8 142.8 190.1 C142.8 182.3 141.1 176.8 135.7 171.1 C125.3 161.4 113.6 156.0 99.4 155.8 C98.7 155.8 98.0 155.8 97.3 155.8 C95.0 155.8 92.8 155.7 90.5 155.7 C88.9 155.7 87.3 155.6 85.7 155.6 C82.4 155.6 79.1 155.5 75.7 155.5 C71.5 155.4 67.2 155.3 63.0 155.3 C59.7 155.2 56.4 155.2 53.2 155.1 C51.6 155.1 50.0 155.1 48.5 155.0 C46.3 155.0 44.1 155.0 41.9 154.9 C41.2 154.9 40.6 154.9 39.9 154.9 C34.8 154.9 29.6 155.2 25.7 158.9 Z " fill="#E55F12" transform="translate(1009.4,94.9)"/><path d="M0 0 C0.8 -0.0 1.6 -0.0 2.4 -0.0 C4.0 -0.0 5.7 -0.0 7.3 -0.0 C9.8 -0.0 12.4 -0.0 14.9 -0.1 C16.5 -0.1 18.1 -0.1 19.7 -0.1 C20.4 -0.1 21.2 -0.1 22.0 -0.1 C28.7 -0.1 28.7 -0.1 31.8 2.2 C32.9 4.5 32.9 5.9 32.9 8.5 C32.9 9.4 32.9 10.3 32.9 11.2 C32.9 12.2 32.9 13.2 32.9 14.3 C32.9 15.3 32.9 16.4 32.9 17.5 C32.9 20.5 32.9 23.4 32.9 26.4 C32.9 29.6 32.9 32.8 32.9 36.0 C32.9 42.2 32.9 48.5 32.9 54.7 C32.9 59.8 32.9 64.9 32.9 70.0 C32.9 70.7 32.9 71.4 32.9 72.2 C32.9 73.7 32.9 75.1 32.9 76.6 C32.9 90.4 32.9 104.2 32.9 118.0 C32.9 129.8 32.9 141.7 32.9 153.5 C32.9 167.2 32.9 181.0 32.9 194.7 C32.9 196.2 32.9 197.7 32.9 199.1 C32.9 199.9 32.9 200.6 32.9 201.3 C32.9 206.4 32.9 211.5 32.9 216.5 C32.9 222.7 32.9 228.9 32.9 235.1 C32.9 238.3 32.9 241.5 32.9 244.6 C32.9 248.0 32.9 251.5 32.9 254.9 C32.9 255.9 32.9 256.9 32.9 257.9 C32.9 264.4 32.5 270.7 31.8 277.2 C12.5 277.3 -6.9 277.3 -26.2 277.4 C-35.2 277.4 -44.1 277.4 -53.1 277.5 C-60.9 277.5 -68.8 277.5 -76.6 277.5 C-80.7 277.5 -84.9 277.6 -89.0 277.6 C-92.9 277.6 -96.8 277.6 -100.7 277.6 C-102.1 277.6 -103.5 277.6 -105.0 277.6 C-118.1 277.8 -118.1 277.8 -123.2 273.2 C-125.2 272.4 -125.2 272.4 -126.8 272.1 C-127.4 272.0 -128.1 271.8 -128.7 271.7 C-129.1 271.6 -129.1 271.6 -130.7 271.3 C-142.3 268.7 -152.7 264.3 -162.2 257.2 C-163.0 256.6 -163.8 256.0 -164.6 255.4 C-166.8 253.7 -169.0 251.9 -171.2 250.2 C-171.8 249.7 -172.3 249.3 -172.9 248.9 C-186.5 238.1 -195.1 220.9 -197.8 204.0 C-198.2 202.2 -198.2 202.2 -198.9 200.1 C-201.9 191.1 -201.6 182.3 -201.6 172.9 C-201.6 171.1 -201.6 169.3 -201.6 167.4 C-201.6 162.5 -201.6 157.6 -201.6 152.6 C-201.6 147.5 -201.6 142.3 -201.6 137.1 C-201.6 128.4 -201.6 119.8 -201.6 111.1 C-201.6 101.1 -201.6 91.0 -201.6 81.0 C-201.6 72.4 -201.6 63.8 -201.6 55.1 C-201.6 50.0 -201.6 44.8 -201.6 39.7 C-201.6 34.9 -201.6 30.0 -201.6 25.2 C-201.6 23.4 -201.6 21.7 -201.6 19.9 C-201.6 17.5 -201.6 15.1 -201.6 12.6 C-201.6 11.9 -201.6 11.2 -201.6 10.5 C-201.6 6.5 -201.2 4.0 -198.2 1.2 C-196.2 0.7 -196.2 0.7 -193.9 0.7 C-193.5 0.6 -193.5 0.6 -191.3 0.6 C-190.3 0.6 -189.4 0.6 -188.4 0.6 C-187.5 0.6 -186.5 0.6 -185.5 0.6 C-183.5 0.6 -181.5 0.6 -179.4 0.6 C-176.3 0.7 -173.2 0.6 -170.1 0.6 C-168.1 0.6 -166.1 0.6 -164.1 0.6 C-163.2 0.6 -162.3 0.6 -161.3 0.6 C-160.4 0.6 -159.6 0.6 -158.7 0.7 C-157.9 0.7 -157.1 0.7 -156.4 0.7 C-153.3 1.4 -152.2 2.7 -150.2 5.2 C-149.8 7.6 -149.7 9.5 -149.7 11.9 C-149.7 12.6 -149.7 13.3 -149.7 14.0 C-149.7 16.2 -149.7 18.5 -149.7 20.8 C-149.7 22.4 -149.7 24.0 -149.7 25.6 C-149.7 29.1 -149.7 32.6 -149.7 36.2 C-149.7 41.7 -149.7 47.3 -149.7 52.9 C-149.7 63.7 -149.7 74.6 -149.7 85.4 C-149.7 99.1 -149.7 112.9 -149.6 126.6 C-149.6 131.2 -149.6 135.8 -149.6 140.5 C-149.7 173.7 -149.7 173.7 -147.9 188.3 C-147.8 189.3 -147.7 190.2 -147.6 191.2 C-146.9 196.4 -145.9 199.4 -142.2 203.2 C-141.2 205.2 -141.2 205.2 -140.4 207.1 C-138.2 211.6 -135.2 214.1 -131.2 217.2 C-130.8 217.6 -130.4 217.9 -130.0 218.3 C-126.3 221.7 -123.0 223.3 -118.2 224.4 C-117.5 224.6 -116.8 224.8 -116.1 224.9 C-106.8 226.9 -97.5 226.7 -88.1 226.7 C-86.1 226.7 -84.1 226.7 -82.1 226.7 C-78.0 226.7 -73.9 226.7 -69.7 226.7 C-64.4 226.7 -59.1 226.7 -53.8 226.7 C-49.8 226.7 -45.7 226.7 -41.6 226.7 C-39.6 226.7 -37.7 226.7 -35.7 226.7 C-33.0 226.7 -30.3 226.7 -27.6 226.7 C-26.8 226.7 -26.0 226.7 -25.1 226.7 C-24.4 226.7 -23.7 226.7 -22.9 226.7 C-22.3 226.7 -21.6 226.7 -21.0 226.7 C-19.2 226.2 -19.2 226.2 -17.5 224.7 C-15.6 221.0 -15.8 217.6 -15.8 213.5 C-15.8 212.6 -15.8 211.7 -15.8 210.8 C-15.8 207.8 -15.8 204.8 -15.8 201.9 C-15.8 199.7 -15.8 197.6 -15.8 195.5 C-15.8 190.9 -15.8 186.3 -15.8 181.7 C-15.8 175.0 -15.8 168.4 -15.7 161.7 C-15.7 151.0 -15.7 140.2 -15.7 129.4 C-15.7 129.1 -15.7 129.1 -15.7 127.4 C-15.7 124.8 -15.7 122.2 -15.7 119.6 C-15.7 112.4 -15.6 105.2 -15.6 98.0 C-15.6 97.3 -15.6 96.7 -15.6 96.0 C-15.6 85.3 -15.6 74.5 -15.6 63.8 C-15.5 57.1 -15.5 50.5 -15.5 43.9 C-15.5 38.8 -15.5 33.7 -15.5 28.6 C-15.5 26.6 -15.5 24.5 -15.5 22.4 C-15.5 19.5 -15.5 16.7 -15.5 13.9 C-15.5 13.0 -15.5 12.2 -15.5 11.3 C-15.4 4.2 -15.4 4.2 -13.2 1.2 C-9.0 -0.3 -4.4 0.0 0 0 Z " fill="#E55F12" transform="translate(1419.2,94.8)"/></svg>